{
    "asset" : {
        "generator" : "Khronos glTF Blender I/O v1.6.16",
        "version" : "2.0"
    },
    "scene" : 0,
    "scenes" : [
        {
            "name" : "Scene",
            "nodes" : [
                0,
                1,
                2
            ]
        }
    ],
    "nodes" : [
        {
            "mesh" : 0,
            "name" : "r2_33x3_1",
            "translation" : [
                -0.041742000728845596,
                0.24932600557804108,
                0.006645999848842621
            ]
        },
        {
            "mesh" : 1,
            "name" : "r2_33x3_2",
            "translation" : [
                -0.0027439999394118786,
                0.24949699640274048,
                0.006645999848842621
            ]
        },
        {
            "mesh" : 2,
            "name" : "r2_33x3_3",
            "translation" : [
                0.03625499829649925,
                0.24949699640274048,
                0.006645999848842621
            ]
        }
    ],
    "animations" : [
        {
            "channels" : [
                {
                    "sampler" : 0,
                    "target" : {
                        "node" : 0,
                        "path" : "translation"
                    }
                }
            ],
            "name" : "r2_33x3_1Action",
            "samplers" : [
                {
                    "input" : 29,
                    "interpolation" : "LINEAR",
                    "output" : 30
                }
            ]
        },
        {
            "channels" : [
                {
                    "sampler" : 0,
                    "target" : {
                        "node" : 1,
                        "path" : "translation"
                    }
                }
            ],
            "name" : "r2_33x3_2Action",
            "samplers" : [
                {
                    "input" : 31,
                    "interpolation" : "LINEAR",
                    "output" : 32
                }
            ]
        },
        {
            "channels" : [
                {
                    "sampler" : 0,
                    "target" : {
                        "node" : 2,
                        "path" : "translation"
                    }
                }
            ],
            "name" : "r2_33x3_3Action",
            "samplers" : [
                {
                    "input" : 33,
                    "interpolation" : "LINEAR",
                    "output" : 34
                }
            ]
        }
    ],
    "materials" : [
        {
            "doubleSided" : true,
            "name" : "Bottom",
            "pbrMetallicRoughness" : {
                "baseColorFactor" : [
                    0.5789999961853027,
                    0.9190000295639038,
                    1,
                    1
                ],
                "metallicFactor" : 0,
                "roughnessFactor" : 0.859000027179718
            }
        },
        {
            "doubleSided" : true,
            "name" : "White",
            "pbrMetallicRoughness" : {
                "metallicFactor" : 0,
                "roughnessFactor" : 0.859000027179718
            }
        },
        {
            "alphaCutoff" : 0.5,
            "alphaMode" : "MASK",
            "doubleSided" : true,
            "name" : "Logo_1",
            "pbrMetallicRoughness" : {
                "baseColorTexture" : {
                    "index" : 0
                },
                "metallicFactor" : 0,
                "roughnessFactor" : 0.5
            }
        }
    ],
    "meshes" : [
        {
            "name" : "r2_33x3_1",
            "primitives" : [
                {
                    "attributes" : {
                        "POSITION" : 0,
                        "NORMAL" : 1,
                        "TEXCOORD_0" : 2
                    },
                    "indices" : 3,
                    "material" : 0
                },
                {
                    "attributes" : {
                        "POSITION" : 4,
                        "NORMAL" : 5,
                        "TEXCOORD_0" : 6
                    },
                    "indices" : 7,
                    "material" : 1
                },
                {
                    "attributes" : {
                        "POSITION" : 8,
                        "NORMAL" : 9,
                        "TEXCOORD_0" : 10
                    },
                    "indices" : 11,
                    "material" : 2
                }
            ]
        },
        {
            "name" : "r2_33x3_2",
            "primitives" : [
                {
                    "attributes" : {
                        "POSITION" : 12,
                        "NORMAL" : 13,
                        "TEXCOORD_0" : 14
                    },
                    "indices" : 3,
                    "material" : 0
                },
                {
                    "attributes" : {
                        "POSITION" : 15,
                        "NORMAL" : 16,
                        "TEXCOORD_0" : 17
                    },
                    "indices" : 18,
                    "material" : 1
                }
            ]
        },
        {
            "name" : "r2_33x3_3",
            "primitives" : [
                {
                    "attributes" : {
                        "POSITION" : 19,
                        "NORMAL" : 20,
                        "TEXCOORD_0" : 21
                    },
                    "indices" : 3,
                    "material" : 0
                },
                {
                    "attributes" : {
                        "POSITION" : 22,
                        "NORMAL" : 23,
                        "TEXCOORD_0" : 24
                    },
                    "indices" : 25,
                    "material" : 1
                },
                {
                    "attributes" : {
                        "POSITION" : 26,
                        "NORMAL" : 27,
                        "TEXCOORD_0" : 28
                    },
                    "indices" : 11,
                    "material" : 2
                }
            ]
        }
    ],
    "textures" : [
        {
            "sampler" : 0,
            "source" : 0
        }
    ],
    "images" : [
        {
            "bufferView" : 12,
            "mimeType" : "image/png",
            "name" : "bonnet"
        }
    ],
    "accessors" : [
        {
            "bufferView" : 0,
            "componentType" : 5126,
            "count" : 24,
            "max" : [
                0.017500000074505806,
                0.009999999776482582,
                0.054999999701976776
            ],
            "min" : [
                -0.017500000074505806,
                -0.009999999776482582,
                -0.054999999701976776
            ],
            "type" : "VEC3"
        },
        {
            "bufferView" : 1,
            "componentType" : 5126,
            "count" : 24,
            "type" : "VEC3"
        },
        {
            "bufferView" : 2,
            "componentType" : 5126,
            "count" : 24,
            "type" : "VEC2"
        },
        {
            "bufferView" : 3,
            "componentType" : 5123,
            "count" : 36,
            "type" : "SCALAR"
        },
        {
            "bufferView" : 4,
            "componentType" : 5126,
            "count" : 15861,
            "max" : [
                0.012176251038908958,
                0.004580033477395773,
                0.05520001798868179
            ],
            "min" : [
                -0.017700064927339554,
                -0.004580045584589243,
                -0.0553000383079052
            ],
            "type" : "VEC3"
        },
        {
            "bufferView" : 5,
            "componentType" : 5126,
            "count" : 15861,
            "type" : "VEC3"
        },
        {
            "bufferView" : 6,
            "componentType" : 5126,
            "count" : 15861,
            "type" : "VEC2"
        },
        {
            "bufferView" : 7,
            "componentType" : 5123,
            "count" : 24432,
            "type" : "SCALAR"
        },
        {
            "bufferView" : 8,
            "componentType" : 5126,
            "count" : 4,
            "max" : [
                -0.017899971455335617,
                0.00875015277415514,
                -0.035249974578619
            ],
            "min" : [
                -0.017900098115205765,
                -0.008749899454414845,
                -0.05275002494454384
            ],
            "type" : "VEC3"
        },
        {
            "bufferView" : 9,
            "componentType" : 5126,
            "count" : 4,
            "type" : "VEC3"
        },
        {
            "bufferView" : 10,
            "componentType" : 5126,
            "count" : 4,
            "type" : "VEC2"
        },
        {
            "bufferView" : 11,
            "componentType" : 5123,
            "count" : 6,
            "type" : "SCALAR"
        },
        {
            "bufferView" : 13,
            "componentType" : 5126,
            "count" : 24,
            "max" : [
                0.017500000074505806,
                0.009999999776482582,
                0.054999999701976776
            ],
            "min" : [
                -0.017500000074505806,
                -0.009999999776482582,
                -0.054999999701976776
            ],
            "type" : "VEC3"
        },
        {
            "bufferView" : 14,
            "componentType" : 5126,
            "count" : 24,
            "type" : "VEC3"
        },
        {
            "bufferView" : 15,
            "componentType" : 5126,
            "count" : 24,
            "type" : "VEC2"
        },
        {
            "bufferView" : 16,
            "componentType" : 5126,
            "count" : 13572,
            "max" : [
                0.016983751207590103,
                0.003453910583630204,
                0.05520002171397209
            ],
            "min" : [
                -0.016983751207590103,
                -0.0034539212938398123,
                -0.05530005320906639
            ],
            "type" : "VEC3"
        },
        {
            "bufferView" : 17,
            "componentType" : 5126,
            "count" : 13572,
            "type" : "VEC3"
        },
        {
            "bufferView" : 18,
            "componentType" : 5126,
            "count" : 13572,
            "type" : "VEC2"
        },
        {
            "bufferView" : 19,
            "componentType" : 5123,
            "count" : 21432,
            "type" : "SCALAR"
        },
        {
            "bufferView" : 20,
            "componentType" : 5126,
            "count" : 24,
            "max" : [
                0.017500000074505806,
                0.009999999776482582,
                0.054999999701976776
            ],
            "min" : [
                -0.017500000074505806,
                -0.009999999776482582,
                -0.054999999701976776
            ],
            "type" : "VEC3"
        },
        {
            "bufferView" : 21,
            "componentType" : 5126,
            "count" : 24,
            "type" : "VEC3"
        },
        {
            "bufferView" : 22,
            "componentType" : 5126,
            "count" : 24,
            "type" : "VEC2"
        },
        {
            "bufferView" : 23,
            "componentType" : 5126,
            "count" : 6976,
            "max" : [
                0.017700063064694405,
                0.00457996129989624,
                0.05520001798868179
            ],
            "min" : [
                -0.005066250916570425,
                -0.004579966422170401,
                -0.055300023406744
            ],
            "type" : "VEC3"
        },
        {
            "bufferView" : 24,
            "componentType" : 5126,
            "count" : 6976,
            "type" : "VEC3"
        },
        {
            "bufferView" : 25,
            "componentType" : 5126,
            "count" : 6976,
            "type" : "VEC2"
        },
        {
            "bufferView" : 26,
            "componentType" : 5123,
            "count" : 10488,
            "type" : "SCALAR"
        },
        {
            "bufferView" : 27,
            "componentType" : 5126,
            "count" : 4,
            "max" : [
                0.017900094389915466,
                0.008749889209866524,
                0.05275002494454384
            ],
            "min" : [
                0.01789996773004532,
                -0.00875016301870346,
                0.035249974578619
            ],
            "type" : "VEC3"
        },
        {
            "bufferView" : 28,
            "componentType" : 5126,
            "count" : 4,
            "type" : "VEC3"
        },
        {
            "bufferView" : 29,
            "componentType" : 5126,
            "count" : 4,
            "type" : "VEC2"
        },
        {
            "bufferView" : 30,
            "componentType" : 5126,
            "count" : 47,
            "max" : [
                34.25
            ],
            "min" : [
                22.75
            ],
            "type" : "SCALAR"
        },
        {
            "bufferView" : 31,
            "componentType" : 5126,
            "count" : 47,
            "type" : "VEC3"
        },
        {
            "bufferView" : 32,
            "componentType" : 5126,
            "count" : 51,
            "max" : [
                35.75
            ],
            "min" : [
                23.25
            ],
            "type" : "SCALAR"
        },
        {
            "bufferView" : 33,
            "componentType" : 5126,
            "count" : 51,
            "type" : "VEC3"
        },
        {
            "bufferView" : 34,
            "componentType" : 5126,
            "count" : 43,
            "max" : [
                37.5
            ],
            "min" : [
                27
            ],
            "type" : "SCALAR"
        },
        {
            "bufferView" : 35,
            "componentType" : 5126,
            "count" : 43,
            "type" : "VEC3"
        }
    ],
    "bufferViews" : [
        {
            "buffer" : 0,
            "byteLength" : 288,
            "byteOffset" : 0
        },
        {
            "buffer" : 0,
            "byteLength" : 288,
            "byteOffset" : 288
        },
        {
            "buffer" : 0,
            "byteLength" : 192,
            "byteOffset" : 576
        },
        {
            "buffer" : 0,
            "byteLength" : 72,
            "byteOffset" : 768
        },
        {
            "buffer" : 0,
            "byteLength" : 190332,
            "byteOffset" : 840
        },
        {
            "buffer" : 0,
            "byteLength" : 190332,
            "byteOffset" : 191172
        },
        {
            "buffer" : 0,
            "byteLength" : 126888,
            "byteOffset" : 381504
        },
        {
            "buffer" : 0,
            "byteLength" : 48864,
            "byteOffset" : 508392
        },
        {
            "buffer" : 0,
            "byteLength" : 48,
            "byteOffset" : 557256
        },
        {
            "buffer" : 0,
            "byteLength" : 48,
            "byteOffset" : 557304
        },
        {
            "buffer" : 0,
            "byteLength" : 32,
            "byteOffset" : 557352
        },
        {
            "buffer" : 0,
            "byteLength" : 12,
            "byteOffset" : 557384
        },
        {
            "buffer" : 0,
            "byteLength" : 20888,
            "byteOffset" : 557396
        },
        {
            "buffer" : 0,
            "byteLength" : 288,
            "byteOffset" : 578284
        },
        {
            "buffer" : 0,
            "byteLength" : 288,
            "byteOffset" : 578572
        },
        {
            "buffer" : 0,
            "byteLength" : 192,
            "byteOffset" : 578860
        },
        {
            "buffer" : 0,
            "byteLength" : 162864,
            "byteOffset" : 579052
        },
        {
            "buffer" : 0,
            "byteLength" : 162864,
            "byteOffset" : 741916
        },
        {
            "buffer" : 0,
            "byteLength" : 108576,
            "byteOffset" : 904780
        },
        {
            "buffer" : 0,
            "byteLength" : 42864,
            "byteOffset" : 1013356
        },
        {
            "buffer" : 0,
            "byteLength" : 288,
            "byteOffset" : 1056220
        },
        {
            "buffer" : 0,
            "byteLength" : 288,
            "byteOffset" : 1056508
        },
        {
            "buffer" : 0,
            "byteLength" : 192,
            "byteOffset" : 1056796
        },
        {
            "buffer" : 0,
            "byteLength" : 83712,
            "byteOffset" : 1056988
        },
        {
            "buffer" : 0,
            "byteLength" : 83712,
            "byteOffset" : 1140700
        },
        {
            "buffer" : 0,
            "byteLength" : 55808,
            "byteOffset" : 1224412
        },
        {
            "buffer" : 0,
            "byteLength" : 20976,
            "byteOffset" : 1280220
        },
        {
            "buffer" : 0,
            "byteLength" : 48,
            "byteOffset" : 1301196
        },
        {
            "buffer" : 0,
            "byteLength" : 48,
            "byteOffset" : 1301244
        },
        {
            "buffer" : 0,
            "byteLength" : 32,
            "byteOffset" : 1301292
        },
        {
            "buffer" : 0,
            "byteLength" : 188,
            "byteOffset" : 1301324
        },
        {
            "buffer" : 0,
            "byteLength" : 564,
            "byteOffset" : 1301512
        },
        {
            "buffer" : 0,
            "byteLength" : 204,
            "byteOffset" : 1302076
        },
        {
            "buffer" : 0,
            "byteLength" : 612,
            "byteOffset" : 1302280
        },
        {
            "buffer" : 0,
            "byteLength" : 172,
            "byteOffset" : 1302892
        },
        {
            "buffer" : 0,
            "byteLength" : 516,
            "byteOffset" : 1303064
        }
    ],
    "samplers" : [
        {
            "magFilter" : 9729,
            "minFilter" : 9987
        }
    ],
    "buffers" : [
        {
            "byteLength" : 1303580,
            "uri" : "data:application/octet-stream;base64,"
        }
    ]
}
