{
    "asset" : {
        "generator" : "Khronos glTF Blender I/O v1.6.16",
        "version" : "2.0"
    },
    "scene" : 0,
    "scenes" : [
        {
            "name" : "Scene",
            "nodes" : [
                0,
                1,
                2
            ]
        }
    ],
    "nodes" : [
        {
            "mesh" : 0,
            "name" : "r6_50x25x25_1",
            "translation" : [
                -0.03245000168681145,
                0.1593260020017624,
                0.006645999848842621
            ]
        },
        {
            "mesh" : 1,
            "name" : "r6_50x25x25_2",
            "translation" : [
                0.026920000091195107,
                0.1594969928264618,
                -0.020999999716877937
            ]
        },
        {
            "mesh" : 2,
            "name" : "r6_50x25x25_3",
            "translation" : [
                0.026920000091195107,
                0.1594969928264618,
                0.03500000014901161
            ]
        }
    ],
    "animations" : [
        {
            "channels" : [
                {
                    "sampler" : 0,
                    "target" : {
                        "node" : 0,
                        "path" : "translation"
                    }
                }
            ],
            "name" : "r6_50x25x25_1Action",
            "samplers" : [
                {
                    "input" : 22,
                    "interpolation" : "LINEAR",
                    "output" : 23
                }
            ]
        },
        {
            "channels" : [
                {
                    "sampler" : 0,
                    "target" : {
                        "node" : 1,
                        "path" : "translation"
                    }
                }
            ],
            "name" : "r6_50x25x25_2Action",
            "samplers" : [
                {
                    "input" : 24,
                    "interpolation" : "LINEAR",
                    "output" : 25
                }
            ]
        },
        {
            "channels" : [
                {
                    "sampler" : 0,
                    "target" : {
                        "node" : 2,
                        "path" : "translation"
                    }
                }
            ],
            "name" : "r6_50x25x25_3Action",
            "samplers" : [
                {
                    "input" : 26,
                    "interpolation" : "LINEAR",
                    "output" : 27
                }
            ]
        }
    ],
    "materials" : [
        {
            "doubleSided" : true,
            "name" : "Top",
            "pbrMetallicRoughness" : {
                "baseColorFactor" : [
                    0.5920000076293945,
                    0.8309999704360962,
                    0.7760000228881836,
                    1
                ],
                "metallicFactor" : 0,
                "roughnessFactor" : 0.859000027179718
            }
        },
        {
            "doubleSided" : true,
            "name" : "White",
            "pbrMetallicRoughness" : {
                "metallicFactor" : 0,
                "roughnessFactor" : 0.859000027179718
            }
        }
    ],
    "meshes" : [
        {
            "name" : "r6_50x25x25_1",
            "primitives" : [
                {
                    "attributes" : {
                        "POSITION" : 0,
                        "NORMAL" : 1,
                        "TEXCOORD_0" : 2
                    },
                    "indices" : 3,
                    "material" : 0
                },
                {
                    "attributes" : {
                        "POSITION" : 4,
                        "NORMAL" : 5,
                        "TEXCOORD_0" : 6
                    },
                    "indices" : 7,
                    "material" : 1
                }
            ]
        },
        {
            "name" : "r6_50x25x25_2",
            "primitives" : [
                {
                    "attributes" : {
                        "POSITION" : 8,
                        "NORMAL" : 9,
                        "TEXCOORD_0" : 10
                    },
                    "indices" : 3,
                    "material" : 0
                },
                {
                    "attributes" : {
                        "POSITION" : 11,
                        "NORMAL" : 12,
                        "TEXCOORD_0" : 13
                    },
                    "indices" : 14,
                    "material" : 1
                }
            ]
        },
        {
            "name" : "r6_50x25x25_3",
            "primitives" : [
                {
                    "attributes" : {
                        "POSITION" : 15,
                        "NORMAL" : 16,
                        "TEXCOORD_0" : 17
                    },
                    "indices" : 3,
                    "material" : 0
                },
                {
                    "attributes" : {
                        "POSITION" : 18,
                        "NORMAL" : 19,
                        "TEXCOORD_0" : 20
                    },
                    "indices" : 21,
                    "material" : 1
                }
            ]
        }
    ],
    "accessors" : [
        {
            "bufferView" : 0,
            "componentType" : 5126,
            "count" : 24,
            "max" : [
                0.026249999180436134,
                0.009999999776482582,
                0.054999999701976776
            ],
            "min" : [
                -0.026249999180436134,
                -0.009999999776482582,
                -0.054999999701976776
            ],
            "type" : "VEC3"
        },
        {
            "bufferView" : 1,
            "componentType" : 5126,
            "count" : 24,
            "type" : "VEC3"
        },
        {
            "bufferView" : 2,
            "componentType" : 5126,
            "count" : 24,
            "type" : "VEC2"
        },
        {
            "bufferView" : 3,
            "componentType" : 5123,
            "count" : 36,
            "type" : "SCALAR"
        },
        {
            "bufferView" : 4,
            "componentType" : 5126,
            "count" : 7652,
            "max" : [
                0.012446253560483456,
                0.004560042172670364,
                0.05520002171397209
            ],
            "min" : [
                -0.02645007334649563,
                -0.004560018889605999,
                -0.055300042033195496
            ],
            "type" : "VEC3"
        },
        {
            "bufferView" : 5,
            "componentType" : 5126,
            "count" : 7652,
            "type" : "VEC3"
        },
        {
            "bufferView" : 6,
            "componentType" : 5126,
            "count" : 7652,
            "type" : "VEC2"
        },
        {
            "bufferView" : 7,
            "componentType" : 5123,
            "count" : 11868,
            "type" : "SCALAR"
        },
        {
            "bufferView" : 8,
            "componentType" : 5126,
            "count" : 24,
            "max" : [
                0.026249999180436134,
                0.009999999776482582,
                0.026249999180436134
            ],
            "min" : [
                -0.026249999180436134,
                -0.009999999776482582,
                -0.026249999180436134
            ],
            "type" : "VEC3"
        },
        {
            "bufferView" : 9,
            "componentType" : 5126,
            "count" : 24,
            "type" : "VEC3"
        },
        {
            "bufferView" : 10,
            "componentType" : 5126,
            "count" : 24,
            "type" : "VEC2"
        },
        {
            "bufferView" : 11,
            "componentType" : 5126,
            "count" : 9953,
            "max" : [
                0.02645004168152809,
                0.003455360420048237,
                0.00948000606149435
            ],
            "min" : [
                -0.009480002336204052,
                -0.0034552887082099915,
                -0.02645002491772175
            ],
            "type" : "VEC3"
        },
        {
            "bufferView" : 12,
            "componentType" : 5126,
            "count" : 9953,
            "type" : "VEC3"
        },
        {
            "bufferView" : 13,
            "componentType" : 5126,
            "count" : 9953,
            "type" : "VEC2"
        },
        {
            "bufferView" : 14,
            "componentType" : 5123,
            "count" : 14928,
            "type" : "SCALAR"
        },
        {
            "bufferView" : 15,
            "componentType" : 5126,
            "count" : 24,
            "max" : [
                0.026249999180436134,
                0.009999999776482582,
                0.026249999180436134
            ],
            "min" : [
                -0.026249999180436134,
                -0.009999999776482582,
                -0.026249999180436134
            ],
            "type" : "VEC3"
        },
        {
            "bufferView" : 16,
            "componentType" : 5126,
            "count" : 24,
            "type" : "VEC3"
        },
        {
            "bufferView" : 17,
            "componentType" : 5126,
            "count" : 24,
            "type" : "VEC2"
        },
        {
            "bufferView" : 18,
            "componentType" : 5126,
            "count" : 11087,
            "max" : [
                0.02645004354417324,
                0.003455252619460225,
                0.0264500230550766
            ],
            "min" : [
                -0.010102501139044762,
                -0.0034553587902337313,
                -0.010102507658302784
            ],
            "type" : "VEC3"
        },
        {
            "bufferView" : 19,
            "componentType" : 5126,
            "count" : 11087,
            "type" : "VEC3"
        },
        {
            "bufferView" : 20,
            "componentType" : 5126,
            "count" : 11087,
            "type" : "VEC2"
        },
        {
            "bufferView" : 21,
            "componentType" : 5123,
            "count" : 16968,
            "type" : "SCALAR"
        },
        {
            "bufferView" : 22,
            "componentType" : 5126,
            "count" : 47,
            "max" : [
                11.75
            ],
            "min" : [
                0.25
            ],
            "type" : "SCALAR"
        },
        {
            "bufferView" : 23,
            "componentType" : 5126,
            "count" : 47,
            "type" : "VEC3"
        },
        {
            "bufferView" : 24,
            "componentType" : 5126,
            "count" : 44,
            "max" : [
                13.25
            ],
            "min" : [
                2.5
            ],
            "type" : "SCALAR"
        },
        {
            "bufferView" : 25,
            "componentType" : 5126,
            "count" : 44,
            "type" : "VEC3"
        },
        {
            "bufferView" : 26,
            "componentType" : 5126,
            "count" : 43,
            "max" : [
                15
            ],
            "min" : [
                4.5
            ],
            "type" : "SCALAR"
        },
        {
            "bufferView" : 27,
            "componentType" : 5126,
            "count" : 43,
            "type" : "VEC3"
        }
    ],
    "bufferViews" : [
        {
            "buffer" : 0,
            "byteLength" : 288,
            "byteOffset" : 0
        },
        {
            "buffer" : 0,
            "byteLength" : 288,
            "byteOffset" : 288
        },
        {
            "buffer" : 0,
            "byteLength" : 192,
            "byteOffset" : 576
        },
        {
            "buffer" : 0,
            "byteLength" : 72,
            "byteOffset" : 768
        },
        {
            "buffer" : 0,
            "byteLength" : 91824,
            "byteOffset" : 840
        },
        {
            "buffer" : 0,
            "byteLength" : 91824,
            "byteOffset" : 92664
        },
        {
            "buffer" : 0,
            "byteLength" : 61216,
            "byteOffset" : 184488
        },
        {
            "buffer" : 0,
            "byteLength" : 23736,
            "byteOffset" : 245704
        },
        {
            "buffer" : 0,
            "byteLength" : 288,
            "byteOffset" : 269440
        },
        {
            "buffer" : 0,
            "byteLength" : 288,
            "byteOffset" : 269728
        },
        {
            "buffer" : 0,
            "byteLength" : 192,
            "byteOffset" : 270016
        },
        {
            "buffer" : 0,
            "byteLength" : 119436,
            "byteOffset" : 270208
        },
        {
            "buffer" : 0,
            "byteLength" : 119436,
            "byteOffset" : 389644
        },
        {
            "buffer" : 0,
            "byteLength" : 79624,
            "byteOffset" : 509080
        },
        {
            "buffer" : 0,
            "byteLength" : 29856,
            "byteOffset" : 588704
        },
        {
            "buffer" : 0,
            "byteLength" : 288,
            "byteOffset" : 618560
        },
        {
            "buffer" : 0,
            "byteLength" : 288,
            "byteOffset" : 618848
        },
        {
            "buffer" : 0,
            "byteLength" : 192,
            "byteOffset" : 619136
        },
        {
            "buffer" : 0,
            "byteLength" : 133044,
            "byteOffset" : 619328
        },
        {
            "buffer" : 0,
            "byteLength" : 133044,
            "byteOffset" : 752372
        },
        {
            "buffer" : 0,
            "byteLength" : 88696,
            "byteOffset" : 885416
        },
        {
            "buffer" : 0,
            "byteLength" : 33936,
            "byteOffset" : 974112
        },
        {
            "buffer" : 0,
            "byteLength" : 188,
            "byteOffset" : 1008048
        },
        {
            "buffer" : 0,
            "byteLength" : 564,
            "byteOffset" : 1008236
        },
        {
            "buffer" : 0,
            "byteLength" : 176,
            "byteOffset" : 1008800
        },
        {
            "buffer" : 0,
            "byteLength" : 528,
            "byteOffset" : 1008976
        },
        {
            "buffer" : 0,
            "byteLength" : 172,
            "byteOffset" : 1009504
        },
        {
            "buffer" : 0,
            "byteLength" : 516,
            "byteOffset" : 1009676
        }
    ],
    "buffers" : [
        {
            "byteLength" : 1010192,
            "uri" : "data:application/octet-stream;base64,"
        }
    ]
}
