{
    "asset" : {
        "generator" : "Khronos glTF Blender I/O v1.6.16",
        "version" : "2.0"
    },
    "scene" : 0,
    "scenes" : [
        {
            "name" : "Scene",
            "nodes" : [
                0,
                1
            ]
        }
    ],
    "nodes" : [
        {
            "mesh" : 0,
            "name" : "r5_50x2_1",
            "translation" : [
                -0.03245000168681145,
                0.21932600438594818,
                0.006645999848842621
            ]
        },
        {
            "mesh" : 1,
            "name" : "r5_50x2_2",
            "translation" : [
                0.026920000091195107,
                0.21949699521064758,
                0.006645999848842621
            ]
        }
    ],
    "animations" : [
        {
            "channels" : [
                {
                    "sampler" : 0,
                    "target" : {
                        "node" : 0,
                        "path" : "translation"
                    }
                }
            ],
            "name" : "r5_50x2_1Action",
            "samplers" : [
                {
                    "input" : 15,
                    "interpolation" : "LINEAR",
                    "output" : 16
                }
            ]
        },
        {
            "channels" : [
                {
                    "sampler" : 0,
                    "target" : {
                        "node" : 1,
                        "path" : "translation"
                    }
                }
            ],
            "name" : "r5_50x2_2Action",
            "samplers" : [
                {
                    "input" : 17,
                    "interpolation" : "LINEAR",
                    "output" : 18
                }
            ]
        }
    ],
    "materials" : [
        {
            "doubleSided" : true,
            "name" : "L5",
            "pbrMetallicRoughness" : {
                "baseColorFactor" : [
                    0.1889999955892563,
                    0.7889999747276306,
                    1,
                    1
                ],
                "metallicFactor" : 0,
                "roughnessFactor" : 0.859000027179718
            }
        },
        {
            "doubleSided" : true,
            "name" : "White",
            "pbrMetallicRoughness" : {
                "metallicFactor" : 0,
                "roughnessFactor" : 0.859000027179718
            }
        }
    ],
    "meshes" : [
        {
            "name" : "r5_50x2_1",
            "primitives" : [
                {
                    "attributes" : {
                        "POSITION" : 0,
                        "NORMAL" : 1,
                        "TEXCOORD_0" : 2
                    },
                    "indices" : 3,
                    "material" : 0
                },
                {
                    "attributes" : {
                        "POSITION" : 4,
                        "NORMAL" : 5,
                        "TEXCOORD_0" : 6
                    },
                    "indices" : 7,
                    "material" : 1
                }
            ]
        },
        {
            "name" : "r5_50x2_2",
            "primitives" : [
                {
                    "attributes" : {
                        "POSITION" : 8,
                        "NORMAL" : 9,
                        "TEXCOORD_0" : 10
                    },
                    "indices" : 3,
                    "material" : 0
                },
                {
                    "attributes" : {
                        "POSITION" : 11,
                        "NORMAL" : 12,
                        "TEXCOORD_0" : 13
                    },
                    "indices" : 14,
                    "material" : 1
                }
            ]
        }
    ],
    "accessors" : [
        {
            "bufferView" : 0,
            "componentType" : 5126,
            "count" : 24,
            "max" : [
                0.026249999180436134,
                0.009999999776482582,
                0.054999999701976776
            ],
            "min" : [
                -0.026249999180436134,
                -0.009999999776482582,
                -0.054999999701976776
            ],
            "type" : "VEC3"
        },
        {
            "bufferView" : 1,
            "componentType" : 5126,
            "count" : 24,
            "type" : "VEC3"
        },
        {
            "bufferView" : 2,
            "componentType" : 5126,
            "count" : 24,
            "type" : "VEC2"
        },
        {
            "bufferView" : 3,
            "componentType" : 5123,
            "count" : 36,
            "type" : "SCALAR"
        },
        {
            "bufferView" : 4,
            "componentType" : 5126,
            "count" : 7759,
            "max" : [
                0.012307500466704369,
                0.004560043569654226,
                0.05520002171397209
            ],
            "min" : [
                -0.02645006962120533,
                -0.004560017958283424,
                -0.0553000383079052
            ],
            "type" : "VEC3"
        },
        {
            "bufferView" : 5,
            "componentType" : 5126,
            "count" : 7759,
            "type" : "VEC3"
        },
        {
            "bufferView" : 6,
            "componentType" : 5126,
            "count" : 7759,
            "type" : "VEC2"
        },
        {
            "bufferView" : 7,
            "componentType" : 5123,
            "count" : 11988,
            "type" : "SCALAR"
        },
        {
            "bufferView" : 8,
            "componentType" : 5126,
            "count" : 24,
            "max" : [
                0.026249999180436134,
                0.009999999776482582,
                0.054999999701976776
            ],
            "min" : [
                -0.026249999180436134,
                -0.009999999776482582,
                -0.054999999701976776
            ],
            "type" : "VEC3"
        },
        {
            "bufferView" : 9,
            "componentType" : 5126,
            "count" : 24,
            "type" : "VEC3"
        },
        {
            "bufferView" : 10,
            "componentType" : 5126,
            "count" : 24,
            "type" : "VEC2"
        },
        {
            "bufferView" : 11,
            "componentType" : 5126,
            "count" : 9075,
            "max" : [
                0.02645007334649563,
                0.004560035187751055,
                0.05520002171397209
            ],
            "min" : [
                -0.012292502447962761,
                -0.004559996537864208,
                -0.055300042033195496
            ],
            "type" : "VEC3"
        },
        {
            "bufferView" : 12,
            "componentType" : 5126,
            "count" : 9075,
            "type" : "VEC3"
        },
        {
            "bufferView" : 13,
            "componentType" : 5126,
            "count" : 9075,
            "type" : "VEC2"
        },
        {
            "bufferView" : 14,
            "componentType" : 5123,
            "count" : 14052,
            "type" : "SCALAR"
        },
        {
            "bufferView" : 15,
            "componentType" : 5126,
            "count" : 34,
            "max" : [
                26
            ],
            "min" : [
                17.75
            ],
            "type" : "SCALAR"
        },
        {
            "bufferView" : 16,
            "componentType" : 5126,
            "count" : 34,
            "type" : "VEC3"
        },
        {
            "bufferView" : 17,
            "componentType" : 5126,
            "count" : 28,
            "max" : [
                27.25
            ],
            "min" : [
                20.5
            ],
            "type" : "SCALAR"
        },
        {
            "bufferView" : 18,
            "componentType" : 5126,
            "count" : 28,
            "type" : "VEC3"
        }
    ],
    "bufferViews" : [
        {
            "buffer" : 0,
            "byteLength" : 288,
            "byteOffset" : 0
        },
        {
            "buffer" : 0,
            "byteLength" : 288,
            "byteOffset" : 288
        },
        {
            "buffer" : 0,
            "byteLength" : 192,
            "byteOffset" : 576
        },
        {
            "buffer" : 0,
            "byteLength" : 72,
            "byteOffset" : 768
        },
        {
            "buffer" : 0,
            "byteLength" : 93108,
            "byteOffset" : 840
        },
        {
            "buffer" : 0,
            "byteLength" : 93108,
            "byteOffset" : 93948
        },
        {
            "buffer" : 0,
            "byteLength" : 62072,
            "byteOffset" : 187056
        },
        {
            "buffer" : 0,
            "byteLength" : 23976,
            "byteOffset" : 249128
        },
        {
            "buffer" : 0,
            "byteLength" : 288,
            "byteOffset" : 273104
        },
        {
            "buffer" : 0,
            "byteLength" : 288,
            "byteOffset" : 273392
        },
        {
            "buffer" : 0,
            "byteLength" : 192,
            "byteOffset" : 273680
        },
        {
            "buffer" : 0,
            "byteLength" : 108900,
            "byteOffset" : 273872
        },
        {
            "buffer" : 0,
            "byteLength" : 108900,
            "byteOffset" : 382772
        },
        {
            "buffer" : 0,
            "byteLength" : 72600,
            "byteOffset" : 491672
        },
        {
            "buffer" : 0,
            "byteLength" : 28104,
            "byteOffset" : 564272
        },
        {
            "buffer" : 0,
            "byteLength" : 136,
            "byteOffset" : 592376
        },
        {
            "buffer" : 0,
            "byteLength" : 408,
            "byteOffset" : 592512
        },
        {
            "buffer" : 0,
            "byteLength" : 112,
            "byteOffset" : 592920
        },
        {
            "buffer" : 0,
            "byteLength" : 336,
            "byteOffset" : 593032
        }
    ],
    "buffers" : [
        {
            "byteLength" : 593368,
            "uri" : "data:application/octet-stream;base64,"
        }
    ]
}
