{
    "asset" : {
        "generator" : "Khronos glTF Blender I/O v1.6.16",
        "version" : "2.0"
    },
    "scene" : 0,
    "scenes" : [
        {
            "name" : "Scene",
            "nodes" : [
                0
            ]
        }
    ],
    "nodes" : [
        {
            "mesh" : 0,
            "name" : "r4_100x1_1",
            "translation" : [
                -0.0027439999394118786,
                0.2779789865016937,
                0.006645999848842621
            ]
        }
    ],
    "animations" : [
        {
            "channels" : [
                {
                    "sampler" : 0,
                    "target" : {
                        "node" : 0,
                        "path" : "translation"
                    }
                }
            ],
            "name" : "r4_100x1_1Action",
            "samplers" : [
                {
                    "input" : 15,
                    "interpolation" : "LINEAR",
                    "output" : 16
                }
            ]
        }
    ],
    "materials" : [
        {
            "doubleSided" : true,
            "name" : "L5",
            "pbrMetallicRoughness" : {
                "baseColorFactor" : [
                    0.1889999955892563,
                    0.7889999747276306,
                    1,
                    1
                ],
                "metallicFactor" : 0,
                "roughnessFactor" : 0.859000027179718
            }
        },
        {
            "doubleSided" : true,
            "name" : "White",
            "pbrMetallicRoughness" : {
                "metallicFactor" : 0,
                "roughnessFactor" : 0.859000027179718
            }
        },
        {
            "alphaCutoff" : 0.5,
            "alphaMode" : "MASK",
            "doubleSided" : true,
            "name" : "Logo_1",
            "pbrMetallicRoughness" : {
                "baseColorTexture" : {
                    "index" : 0
                },
                "metallicFactor" : 0,
                "roughnessFactor" : 0.5
            }
        },
        {
            "alphaCutoff" : 0.5,
            "alphaMode" : "MASK",
            "doubleSided" : true,
            "name" : "Logo_2",
            "pbrMetallicRoughness" : {
                "baseColorTexture" : {
                    "index" : 1
                },
                "metallicFactor" : 0,
                "roughnessFactor" : 0.5
            }
        }
    ],
    "meshes" : [
        {
            "name" : "r4_100x1_1",
            "primitives" : [
                {
                    "attributes" : {
                        "POSITION" : 0,
                        "NORMAL" : 1,
                        "TEXCOORD_0" : 2
                    },
                    "indices" : 3,
                    "material" : 0
                },
                {
                    "attributes" : {
                        "POSITION" : 4,
                        "NORMAL" : 5,
                        "TEXCOORD_0" : 6
                    },
                    "indices" : 7,
                    "material" : 1
                },
                {
                    "attributes" : {
                        "POSITION" : 8,
                        "NORMAL" : 9,
                        "TEXCOORD_0" : 10
                    },
                    "indices" : 11,
                    "material" : 2
                },
                {
                    "attributes" : {
                        "POSITION" : 12,
                        "NORMAL" : 13,
                        "TEXCOORD_0" : 14
                    },
                    "indices" : 11,
                    "material" : 3
                }
            ]
        }
    ],
    "textures" : [
        {
            "sampler" : 0,
            "source" : 0
        },
        {
            "sampler" : 0,
            "source" : 1
        }
    ],
    "images" : [
        {
            "bufferView" : 12,
            "mimeType" : "image/png",
            "name" : "bonnet"
        },
        {
            "bufferView" : 16,
            "mimeType" : "image/png",
            "name" : "Windows_Calendar"
        }
    ],
    "accessors" : [
        {
            "bufferView" : 0,
            "componentType" : 5126,
            "count" : 24,
            "max" : [
                0.05649999901652336,
                0.009999999776482582,
                0.054999999701976776
            ],
            "min" : [
                -0.05649999901652336,
                -0.009999999776482582,
                -0.054999999701976776
            ],
            "type" : "VEC3"
        },
        {
            "bufferView" : 1,
            "componentType" : 5126,
            "count" : 24,
            "type" : "VEC3"
        },
        {
            "bufferView" : 2,
            "componentType" : 5126,
            "count" : 24,
            "type" : "VEC2"
        },
        {
            "bufferView" : 3,
            "componentType" : 5123,
            "count" : 36,
            "type" : "SCALAR"
        },
        {
            "bufferView" : 4,
            "componentType" : 5126,
            "count" : 28695,
            "max" : [
                0.05670011043548584,
                0.004560175351798534,
                0.05520002916455269
            ],
            "min" : [
                -0.05680015683174133,
                -0.004560156259685755,
                -0.05530008673667908
            ],
            "type" : "VEC3"
        },
        {
            "bufferView" : 5,
            "componentType" : 5126,
            "count" : 28695,
            "type" : "VEC3"
        },
        {
            "bufferView" : 6,
            "componentType" : 5126,
            "count" : 28695,
            "type" : "VEC2"
        },
        {
            "bufferView" : 7,
            "componentType" : 5123,
            "count" : 44088,
            "type" : "SCALAR"
        },
        {
            "bufferView" : 8,
            "componentType" : 5126,
            "count" : 8,
            "max" : [
                0.0570501983165741,
                0.008750167675316334,
                0.05275002494454384
            ],
            "min" : [
                -0.057225242257118225,
                -0.008750148117542267,
                -0.05275002494454384
            ],
            "type" : "VEC3"
        },
        {
            "bufferView" : 9,
            "componentType" : 5126,
            "count" : 8,
            "type" : "VEC3"
        },
        {
            "bufferView" : 10,
            "componentType" : 5126,
            "count" : 8,
            "type" : "VEC2"
        },
        {
            "bufferView" : 11,
            "componentType" : 5123,
            "count" : 12,
            "type" : "SCALAR"
        },
        {
            "bufferView" : 13,
            "componentType" : 5126,
            "count" : 8,
            "max" : [
                0.05274999886751175,
                0.00875017698854208,
                0.055675115436315536
            ],
            "min" : [
                -0.05274999886751175,
                -0.008750157430768013,
                -0.05555008351802826
            ],
            "type" : "VEC3"
        },
        {
            "bufferView" : 14,
            "componentType" : 5126,
            "count" : 8,
            "type" : "VEC3"
        },
        {
            "bufferView" : 15,
            "componentType" : 5126,
            "count" : 8,
            "type" : "VEC2"
        },
        {
            "bufferView" : 17,
            "componentType" : 5126,
            "count" : 47,
            "max" : [
                40.5
            ],
            "min" : [
                29
            ],
            "type" : "SCALAR"
        },
        {
            "bufferView" : 18,
            "componentType" : 5126,
            "count" : 47,
            "type" : "VEC3"
        }
    ],
    "bufferViews" : [
        {
            "buffer" : 0,
            "byteLength" : 288,
            "byteOffset" : 0
        },
        {
            "buffer" : 0,
            "byteLength" : 288,
            "byteOffset" : 288
        },
        {
            "buffer" : 0,
            "byteLength" : 192,
            "byteOffset" : 576
        },
        {
            "buffer" : 0,
            "byteLength" : 72,
            "byteOffset" : 768
        },
        {
            "buffer" : 0,
            "byteLength" : 344340,
            "byteOffset" : 840
        },
        {
            "buffer" : 0,
            "byteLength" : 344340,
            "byteOffset" : 345180
        },
        {
            "buffer" : 0,
            "byteLength" : 229560,
            "byteOffset" : 689520
        },
        {
            "buffer" : 0,
            "byteLength" : 88176,
            "byteOffset" : 919080
        },
        {
            "buffer" : 0,
            "byteLength" : 96,
            "byteOffset" : 1007256
        },
        {
            "buffer" : 0,
            "byteLength" : 96,
            "byteOffset" : 1007352
        },
        {
            "buffer" : 0,
            "byteLength" : 64,
            "byteOffset" : 1007448
        },
        {
            "buffer" : 0,
            "byteLength" : 24,
            "byteOffset" : 1007512
        },
        {
            "buffer" : 0,
            "byteLength" : 20888,
            "byteOffset" : 1007536
        },
        {
            "buffer" : 0,
            "byteLength" : 96,
            "byteOffset" : 1028424
        },
        {
            "buffer" : 0,
            "byteLength" : 96,
            "byteOffset" : 1028520
        },
        {
            "buffer" : 0,
            "byteLength" : 64,
            "byteOffset" : 1028616
        },
        {
            "buffer" : 0,
            "byteLength" : 1613,
            "byteOffset" : 1028680
        },
        {
            "buffer" : 0,
            "byteLength" : 188,
            "byteOffset" : 1030296
        },
        {
            "buffer" : 0,
            "byteLength" : 564,
            "byteOffset" : 1030484
        }
    ],
    "samplers" : [
        {
            "magFilter" : 9729,
            "minFilter" : 9987
        }
    ],
    "buffers" : [
        {
            "byteLength" : 1031048,
            "uri" : "data:application/octet-stream;base64,"
        }
    ]
}
