{
    "asset" : {
        "generator" : "Khronos glTF Blender I/O v1.6.16",
        "version" : "2.0"
    },
    "scene" : 0,
    "scenes" : [
        {
            "name" : "Scene",
            "nodes" : [
                3
            ]
        }
    ],
    "nodes" : [
        {
            "mesh" : 0,
            "name" : "r3_33x3xRot90_1",
            "translation" : [
                -0.03904200345277786,
                0,
                4.599918611347675e-05
            ]
        },
        {
            "mesh" : 1,
            "name" : "r3_33x3xRot90_2",
            "translation" : [
                -4.3999869376420975e-05,
                0,
                4.599941894412041e-05
            ]
        },
        {
            "mesh" : 2,
            "name" : "r3_33x3xRot90_3",
            "translation" : [
                0.038954995572566986,
                0,
                4.599941894412041e-05
            ]
        },
        {
            "children" : [
                0,
                1,
                2
            ],
            "name" : "Empty",
            "rotation" : [
                0,
                0.7071080803871155,
                0,
                0.7071055173873901
            ],
            "translation" : [
                -0.0027000000700354576,
                0.30559998750686646,
                0.006599999964237213
            ]
        }
    ],
    "animations" : [
        {
            "channels" : [
                {
                    "sampler" : 0,
                    "target" : {
                        "node" : 0,
                        "path" : "translation"
                    }
                }
            ],
            "name" : "r3_33x3xRot90_1Action",
            "samplers" : [
                {
                    "input" : 29,
                    "interpolation" : "LINEAR",
                    "output" : 30
                }
            ]
        },
        {
            "channels" : [
                {
                    "sampler" : 0,
                    "target" : {
                        "node" : 1,
                        "path" : "translation"
                    }
                }
            ],
            "name" : "r3_33x3xRot90_2Action",
            "samplers" : [
                {
                    "input" : 31,
                    "interpolation" : "LINEAR",
                    "output" : 32
                }
            ]
        },
        {
            "channels" : [
                {
                    "sampler" : 0,
                    "target" : {
                        "node" : 2,
                        "path" : "translation"
                    }
                }
            ],
            "name" : "r3_33x3xRot90_3Action",
            "samplers" : [
                {
                    "input" : 33,
                    "interpolation" : "LINEAR",
                    "output" : 34
                }
            ]
        }
    ],
    "materials" : [
        {
            "doubleSided" : true,
            "name" : "L6",
            "pbrMetallicRoughness" : {
                "baseColorFactor" : [
                    0.32899999618530273,
                    0.4350000023841858,
                    0.5759999752044678,
                    1
                ],
                "metallicFactor" : 0,
                "roughnessFactor" : 0.859000027179718
            }
        },
        {
            "doubleSided" : true,
            "name" : "White",
            "pbrMetallicRoughness" : {
                "metallicFactor" : 0,
                "roughnessFactor" : 0.859000027179718
            }
        },
        {
            "alphaCutoff" : 0.5,
            "alphaMode" : "MASK",
            "doubleSided" : true,
            "name" : "Logo_1",
            "pbrMetallicRoughness" : {
                "baseColorTexture" : {
                    "index" : 0
                },
                "metallicFactor" : 0,
                "roughnessFactor" : 0.5
            }
        }
    ],
    "meshes" : [
        {
            "name" : "r3_33x3xRot90_1",
            "primitives" : [
                {
                    "attributes" : {
                        "POSITION" : 0,
                        "NORMAL" : 1,
                        "TEXCOORD_0" : 2
                    },
                    "indices" : 3,
                    "material" : 0
                },
                {
                    "attributes" : {
                        "POSITION" : 4,
                        "NORMAL" : 5,
                        "TEXCOORD_0" : 6
                    },
                    "indices" : 7,
                    "material" : 1
                },
                {
                    "attributes" : {
                        "POSITION" : 8,
                        "NORMAL" : 9,
                        "TEXCOORD_0" : 10
                    },
                    "indices" : 11,
                    "material" : 2
                }
            ]
        },
        {
            "name" : "r3_33x3xRot90_2",
            "primitives" : [
                {
                    "attributes" : {
                        "POSITION" : 12,
                        "NORMAL" : 13,
                        "TEXCOORD_0" : 14
                    },
                    "indices" : 3,
                    "material" : 0
                },
                {
                    "attributes" : {
                        "POSITION" : 15,
                        "NORMAL" : 16,
                        "TEXCOORD_0" : 17
                    },
                    "indices" : 18,
                    "material" : 1
                }
            ]
        },
        {
            "name" : "r3_33x3xRot90_3",
            "primitives" : [
                {
                    "attributes" : {
                        "POSITION" : 19,
                        "NORMAL" : 20,
                        "TEXCOORD_0" : 21
                    },
                    "indices" : 3,
                    "material" : 0
                },
                {
                    "attributes" : {
                        "POSITION" : 22,
                        "NORMAL" : 23,
                        "TEXCOORD_0" : 24
                    },
                    "indices" : 25,
                    "material" : 1
                },
                {
                    "attributes" : {
                        "POSITION" : 26,
                        "NORMAL" : 27,
                        "TEXCOORD_0" : 28
                    },
                    "indices" : 11,
                    "material" : 2
                }
            ]
        }
    ],
    "textures" : [
        {
            "sampler" : 0,
            "source" : 0
        }
    ],
    "images" : [
        {
            "bufferView" : 12,
            "mimeType" : "image/png",
            "name" : "bonnet"
        }
    ],
    "accessors" : [
        {
            "bufferView" : 0,
            "componentType" : 5126,
            "count" : 24,
            "max" : [
                0.017500000074505806,
                0.009999999776482582,
                0.054999999701976776
            ],
            "min" : [
                -0.017500000074505806,
                -0.009999999776482582,
                -0.054999999701976776
            ],
            "type" : "VEC3"
        },
        {
            "bufferView" : 1,
            "componentType" : 5126,
            "count" : 24,
            "type" : "VEC3"
        },
        {
            "bufferView" : 2,
            "componentType" : 5126,
            "count" : 24,
            "type" : "VEC2"
        },
        {
            "bufferView" : 3,
            "componentType" : 5123,
            "count" : 36,
            "type" : "SCALAR"
        },
        {
            "bufferView" : 4,
            "componentType" : 5126,
            "count" : 10321,
            "max" : [
                0.004957500379532576,
                0.004605076741427183,
                0.05520001798868179
            ],
            "min" : [
                -0.01770010031759739,
                -0.004604978486895561,
                -0.055300023406744
            ],
            "type" : "VEC3"
        },
        {
            "bufferView" : 5,
            "componentType" : 5126,
            "count" : 10321,
            "type" : "VEC3"
        },
        {
            "bufferView" : 6,
            "componentType" : 5126,
            "count" : 10321,
            "type" : "VEC2"
        },
        {
            "bufferView" : 7,
            "componentType" : 5123,
            "count" : 15612,
            "type" : "SCALAR"
        },
        {
            "bufferView" : 8,
            "componentType" : 5126,
            "count" : 4,
            "max" : [
                -0.01789998635649681,
                0.008750167675316334,
                -0.035249974578619
            ],
            "min" : [
                -0.01790011301636696,
                -0.00874988455325365,
                -0.05275002494454384
            ],
            "type" : "VEC3"
        },
        {
            "bufferView" : 9,
            "componentType" : 5126,
            "count" : 4,
            "type" : "VEC3"
        },
        {
            "bufferView" : 10,
            "componentType" : 5126,
            "count" : 4,
            "type" : "VEC2"
        },
        {
            "bufferView" : 11,
            "componentType" : 5123,
            "count" : 6,
            "type" : "SCALAR"
        },
        {
            "bufferView" : 13,
            "componentType" : 5126,
            "count" : 24,
            "max" : [
                0.017500000074505806,
                0.009999999776482582,
                0.054999999701976776
            ],
            "min" : [
                -0.017500000074505806,
                -0.009999999776482582,
                -0.054999999701976776
            ],
            "type" : "VEC3"
        },
        {
            "bufferView" : 14,
            "componentType" : 5126,
            "count" : 24,
            "type" : "VEC3"
        },
        {
            "bufferView" : 15,
            "componentType" : 5126,
            "count" : 24,
            "type" : "VEC2"
        },
        {
            "bufferView" : 16,
            "componentType" : 5126,
            "count" : 4729,
            "max" : [
                0.009577502496540546,
                0.002625175518915057,
                0.05520001798868179
            ],
            "min" : [
                -0.009577501565217972,
                -0.0026251566596329212,
                -0.0553000308573246
            ],
            "type" : "VEC3"
        },
        {
            "bufferView" : 17,
            "componentType" : 5126,
            "count" : 4729,
            "type" : "VEC3"
        },
        {
            "bufferView" : 18,
            "componentType" : 5126,
            "count" : 4729,
            "type" : "VEC2"
        },
        {
            "bufferView" : 19,
            "componentType" : 5123,
            "count" : 7320,
            "type" : "SCALAR"
        },
        {
            "bufferView" : 20,
            "componentType" : 5126,
            "count" : 24,
            "max" : [
                0.017500000074505806,
                0.009999999776482582,
                0.054999999701976776
            ],
            "min" : [
                -0.017500000074505806,
                -0.009999999776482582,
                -0.054999999701976776
            ],
            "type" : "VEC3"
        },
        {
            "bufferView" : 21,
            "componentType" : 5126,
            "count" : 24,
            "type" : "VEC3"
        },
        {
            "bufferView" : 22,
            "componentType" : 5126,
            "count" : 24,
            "type" : "VEC2"
        },
        {
            "bufferView" : 23,
            "componentType" : 5126,
            "count" : 14120,
            "max" : [
                0.017700104042887688,
                0.004604945424944162,
                0.05520001798868179
            ],
            "min" : [
                -0.00905625056475401,
                -0.0046050064265728,
                -0.0553000308573246
            ],
            "type" : "VEC3"
        },
        {
            "bufferView" : 24,
            "componentType" : 5126,
            "count" : 14120,
            "type" : "VEC3"
        },
        {
            "bufferView" : 25,
            "componentType" : 5126,
            "count" : 14120,
            "type" : "VEC2"
        },
        {
            "bufferView" : 26,
            "componentType" : 5123,
            "count" : 21516,
            "type" : "SCALAR"
        },
        {
            "bufferView" : 27,
            "componentType" : 5126,
            "count" : 4,
            "max" : [
                0.017900116741657257,
                0.008749904111027718,
                0.05275002494454384
            ],
            "min" : [
                0.01789999008178711,
                -0.008750148117542267,
                0.035249974578619
            ],
            "type" : "VEC3"
        },
        {
            "bufferView" : 28,
            "componentType" : 5126,
            "count" : 4,
            "type" : "VEC3"
        },
        {
            "bufferView" : 29,
            "componentType" : 5126,
            "count" : 4,
            "type" : "VEC2"
        },
        {
            "bufferView" : 30,
            "componentType" : 5126,
            "count" : 38,
            "max" : [
                43
            ],
            "min" : [
                33.75
            ],
            "type" : "SCALAR"
        },
        {
            "bufferView" : 31,
            "componentType" : 5126,
            "count" : 38,
            "type" : "VEC3"
        },
        {
            "bufferView" : 32,
            "componentType" : 5126,
            "count" : 36,
            "max" : [
                44.75
            ],
            "min" : [
                36
            ],
            "type" : "SCALAR"
        },
        {
            "bufferView" : 33,
            "componentType" : 5126,
            "count" : 36,
            "type" : "VEC3"
        },
        {
            "bufferView" : 34,
            "componentType" : 5126,
            "count" : 33,
            "max" : [
                46.25
            ],
            "min" : [
                38.25
            ],
            "type" : "SCALAR"
        },
        {
            "bufferView" : 35,
            "componentType" : 5126,
            "count" : 33,
            "type" : "VEC3"
        }
    ],
    "bufferViews" : [
        {
            "buffer" : 0,
            "byteLength" : 288,
            "byteOffset" : 0
        },
        {
            "buffer" : 0,
            "byteLength" : 288,
            "byteOffset" : 288
        },
        {
            "buffer" : 0,
            "byteLength" : 192,
            "byteOffset" : 576
        },
        {
            "buffer" : 0,
            "byteLength" : 72,
            "byteOffset" : 768
        },
        {
            "buffer" : 0,
            "byteLength" : 123852,
            "byteOffset" : 840
        },
        {
            "buffer" : 0,
            "byteLength" : 123852,
            "byteOffset" : 124692
        },
        {
            "buffer" : 0,
            "byteLength" : 82568,
            "byteOffset" : 248544
        },
        {
            "buffer" : 0,
            "byteLength" : 31224,
            "byteOffset" : 331112
        },
        {
            "buffer" : 0,
            "byteLength" : 48,
            "byteOffset" : 362336
        },
        {
            "buffer" : 0,
            "byteLength" : 48,
            "byteOffset" : 362384
        },
        {
            "buffer" : 0,
            "byteLength" : 32,
            "byteOffset" : 362432
        },
        {
            "buffer" : 0,
            "byteLength" : 12,
            "byteOffset" : 362464
        },
        {
            "buffer" : 0,
            "byteLength" : 20888,
            "byteOffset" : 362476
        },
        {
            "buffer" : 0,
            "byteLength" : 288,
            "byteOffset" : 383364
        },
        {
            "buffer" : 0,
            "byteLength" : 288,
            "byteOffset" : 383652
        },
        {
            "buffer" : 0,
            "byteLength" : 192,
            "byteOffset" : 383940
        },
        {
            "buffer" : 0,
            "byteLength" : 56748,
            "byteOffset" : 384132
        },
        {
            "buffer" : 0,
            "byteLength" : 56748,
            "byteOffset" : 440880
        },
        {
            "buffer" : 0,
            "byteLength" : 37832,
            "byteOffset" : 497628
        },
        {
            "buffer" : 0,
            "byteLength" : 14640,
            "byteOffset" : 535460
        },
        {
            "buffer" : 0,
            "byteLength" : 288,
            "byteOffset" : 550100
        },
        {
            "buffer" : 0,
            "byteLength" : 288,
            "byteOffset" : 550388
        },
        {
            "buffer" : 0,
            "byteLength" : 192,
            "byteOffset" : 550676
        },
        {
            "buffer" : 0,
            "byteLength" : 169440,
            "byteOffset" : 550868
        },
        {
            "buffer" : 0,
            "byteLength" : 169440,
            "byteOffset" : 720308
        },
        {
            "buffer" : 0,
            "byteLength" : 112960,
            "byteOffset" : 889748
        },
        {
            "buffer" : 0,
            "byteLength" : 43032,
            "byteOffset" : 1002708
        },
        {
            "buffer" : 0,
            "byteLength" : 48,
            "byteOffset" : 1045740
        },
        {
            "buffer" : 0,
            "byteLength" : 48,
            "byteOffset" : 1045788
        },
        {
            "buffer" : 0,
            "byteLength" : 32,
            "byteOffset" : 1045836
        },
        {
            "buffer" : 0,
            "byteLength" : 152,
            "byteOffset" : 1045868
        },
        {
            "buffer" : 0,
            "byteLength" : 456,
            "byteOffset" : 1046020
        },
        {
            "buffer" : 0,
            "byteLength" : 144,
            "byteOffset" : 1046476
        },
        {
            "buffer" : 0,
            "byteLength" : 432,
            "byteOffset" : 1046620
        },
        {
            "buffer" : 0,
            "byteLength" : 132,
            "byteOffset" : 1047052
        },
        {
            "buffer" : 0,
            "byteLength" : 396,
            "byteOffset" : 1047184
        }
    ],
    "samplers" : [
        {
            "magFilter" : 9729,
            "minFilter" : 9987
        }
    ],
    "buffers" : [
        {
            "byteLength" : 1047580,
            "uri" : "data:application/octet-stream;base64,"
        }
    ]
}
