{
    "asset" : {
        "generator" : "Khronos glTF Blender I/O v1.6.16",
        "version" : "2.0"
    },
    "scene" : 0,
    "scenes" : [
        {
            "name" : "Scene",
            "nodes" : [
                0,
                1,
                2,
                3
            ]
        }
    ],
    "nodes" : [
        {
            "mesh" : 0,
            "name" : "r7_25x4_1",
            "translation" : [
                -0.03245000168681145,
                0.18932600319385529,
                -0.020999999716877937
            ]
        },
        {
            "mesh" : 1,
            "name" : "r7_25x4_2",
            "translation" : [
                -0.03245000168681145,
                0.18932600319385529,
                0.03500000014901161
            ]
        },
        {
            "mesh" : 2,
            "name" : "r7_25x4_3",
            "translation" : [
                0.026920000091195107,
                0.1894969940185547,
                -0.020999999716877937
            ]
        },
        {
            "mesh" : 3,
            "name" : "r7_25x4_4",
            "translation" : [
                0.026920000091195107,
                0.1894969940185547,
                0.03500000014901161
            ]
        }
    ],
    "animations" : [
        {
            "channels" : [
                {
                    "sampler" : 0,
                    "target" : {
                        "node" : 0,
                        "path" : "translation"
                    }
                }
            ],
            "name" : "r7_25x4_1Action",
            "samplers" : [
                {
                    "input" : 29,
                    "interpolation" : "LINEAR",
                    "output" : 30
                }
            ]
        },
        {
            "channels" : [
                {
                    "sampler" : 0,
                    "target" : {
                        "node" : 1,
                        "path" : "translation"
                    }
                }
            ],
            "name" : "r7_25x4_2Action",
            "samplers" : [
                {
                    "input" : 31,
                    "interpolation" : "LINEAR",
                    "output" : 32
                }
            ]
        },
        {
            "channels" : [
                {
                    "sampler" : 0,
                    "target" : {
                        "node" : 2,
                        "path" : "translation"
                    }
                }
            ],
            "name" : "r7_25x4_3Action",
            "samplers" : [
                {
                    "input" : 33,
                    "interpolation" : "LINEAR",
                    "output" : 34
                }
            ]
        },
        {
            "channels" : [
                {
                    "sampler" : 0,
                    "target" : {
                        "node" : 3,
                        "path" : "translation"
                    }
                }
            ],
            "name" : "r7_25x4_4Action",
            "samplers" : [
                {
                    "input" : 35,
                    "interpolation" : "LINEAR",
                    "output" : 36
                }
            ]
        }
    ],
    "materials" : [
        {
            "doubleSided" : true,
            "name" : "L6",
            "pbrMetallicRoughness" : {
                "baseColorFactor" : [
                    0.32899999618530273,
                    0.4350000023841858,
                    0.5759999752044678,
                    1
                ],
                "metallicFactor" : 0,
                "roughnessFactor" : 0.859000027179718
            }
        },
        {
            "doubleSided" : true,
            "name" : "White",
            "pbrMetallicRoughness" : {
                "metallicFactor" : 0,
                "roughnessFactor" : 0.859000027179718
            }
        }
    ],
    "meshes" : [
        {
            "name" : "r7_25x4_1",
            "primitives" : [
                {
                    "attributes" : {
                        "POSITION" : 0,
                        "NORMAL" : 1,
                        "TEXCOORD_0" : 2
                    },
                    "indices" : 3,
                    "material" : 0
                },
                {
                    "attributes" : {
                        "POSITION" : 4,
                        "NORMAL" : 5,
                        "TEXCOORD_0" : 6
                    },
                    "indices" : 7,
                    "material" : 1
                }
            ]
        },
        {
            "name" : "r7_25x4_2",
            "primitives" : [
                {
                    "attributes" : {
                        "POSITION" : 8,
                        "NORMAL" : 9,
                        "TEXCOORD_0" : 10
                    },
                    "indices" : 3,
                    "material" : 0
                },
                {
                    "attributes" : {
                        "POSITION" : 11,
                        "NORMAL" : 12,
                        "TEXCOORD_0" : 13
                    },
                    "indices" : 14,
                    "material" : 1
                }
            ]
        },
        {
            "name" : "r7_25x4_3",
            "primitives" : [
                {
                    "attributes" : {
                        "POSITION" : 15,
                        "NORMAL" : 16,
                        "TEXCOORD_0" : 17
                    },
                    "indices" : 3,
                    "material" : 0
                },
                {
                    "attributes" : {
                        "POSITION" : 18,
                        "NORMAL" : 19,
                        "TEXCOORD_0" : 20
                    },
                    "indices" : 21,
                    "material" : 1
                }
            ]
        },
        {
            "name" : "r7_25x4_4",
            "primitives" : [
                {
                    "attributes" : {
                        "POSITION" : 22,
                        "NORMAL" : 23,
                        "TEXCOORD_0" : 24
                    },
                    "indices" : 3,
                    "material" : 0
                },
                {
                    "attributes" : {
                        "POSITION" : 25,
                        "NORMAL" : 26,
                        "TEXCOORD_0" : 27
                    },
                    "indices" : 28,
                    "material" : 1
                }
            ]
        }
    ],
    "accessors" : [
        {
            "bufferView" : 0,
            "componentType" : 5126,
            "count" : 24,
            "max" : [
                0.026249999180436134,
                0.009999999776482582,
                0.026249999180436134
            ],
            "min" : [
                -0.026249999180436134,
                -0.009999999776482582,
                -0.026249999180436134
            ],
            "type" : "VEC3"
        },
        {
            "bufferView" : 1,
            "componentType" : 5126,
            "count" : 24,
            "type" : "VEC3"
        },
        {
            "bufferView" : 2,
            "componentType" : 5126,
            "count" : 24,
            "type" : "VEC2"
        },
        {
            "bufferView" : 3,
            "componentType" : 5123,
            "count" : 36,
            "type" : "SCALAR"
        },
        {
            "bufferView" : 4,
            "componentType" : 5126,
            "count" : 7463,
            "max" : [
                0.00987000111490488,
                0.003455360420048237,
                0.009870010428130627
            ],
            "min" : [
                -0.02645004913210869,
                -0.0034552605357021093,
                -0.026450026780366898
            ],
            "type" : "VEC3"
        },
        {
            "bufferView" : 5,
            "componentType" : 5126,
            "count" : 7463,
            "type" : "VEC3"
        },
        {
            "bufferView" : 6,
            "componentType" : 5126,
            "count" : 7463,
            "type" : "VEC2"
        },
        {
            "bufferView" : 7,
            "componentType" : 5123,
            "count" : 11232,
            "type" : "SCALAR"
        },
        {
            "bufferView" : 8,
            "componentType" : 5126,
            "count" : 24,
            "max" : [
                0.026249999180436134,
                0.009999999776482582,
                0.026249999180436134
            ],
            "min" : [
                -0.026249999180436134,
                -0.009999999776482582,
                -0.026249999180436134
            ],
            "type" : "VEC3"
        },
        {
            "bufferView" : 9,
            "componentType" : 5126,
            "count" : 24,
            "type" : "VEC3"
        },
        {
            "bufferView" : 10,
            "componentType" : 5126,
            "count" : 24,
            "type" : "VEC2"
        },
        {
            "bufferView" : 11,
            "componentType" : 5126,
            "count" : 8632,
            "max" : [
                0.010492498986423016,
                0.00345530454069376,
                0.0264500230550766
            ],
            "min" : [
                -0.02645004726946354,
                -0.0034553587902337313,
                -0.010492498055100441
            ],
            "type" : "VEC3"
        },
        {
            "bufferView" : 12,
            "componentType" : 5126,
            "count" : 8632,
            "type" : "VEC3"
        },
        {
            "bufferView" : 13,
            "componentType" : 5126,
            "count" : 8632,
            "type" : "VEC2"
        },
        {
            "bufferView" : 14,
            "componentType" : 5123,
            "count" : 13272,
            "type" : "SCALAR"
        },
        {
            "bufferView" : 15,
            "componentType" : 5126,
            "count" : 24,
            "max" : [
                0.026249999180436134,
                0.009999999776482582,
                0.026249999180436134
            ],
            "min" : [
                -0.026249999180436134,
                -0.009999999776482582,
                -0.026249999180436134
            ],
            "type" : "VEC3"
        },
        {
            "bufferView" : 16,
            "componentType" : 5126,
            "count" : 24,
            "type" : "VEC3"
        },
        {
            "bufferView" : 17,
            "componentType" : 5126,
            "count" : 24,
            "type" : "VEC2"
        },
        {
            "bufferView" : 18,
            "componentType" : 5126,
            "count" : 9019,
            "max" : [
                0.02645004168152809,
                0.003455360420048237,
                0.00948000606149435
            ],
            "min" : [
                -0.009480002336204052,
                -0.0034552887082099915,
                -0.02645002491772175
            ],
            "type" : "VEC3"
        },
        {
            "bufferView" : 19,
            "componentType" : 5126,
            "count" : 9019,
            "type" : "VEC3"
        },
        {
            "bufferView" : 20,
            "componentType" : 5126,
            "count" : 9019,
            "type" : "VEC2"
        },
        {
            "bufferView" : 21,
            "componentType" : 5123,
            "count" : 13536,
            "type" : "SCALAR"
        },
        {
            "bufferView" : 22,
            "componentType" : 5126,
            "count" : 24,
            "max" : [
                0.026249999180436134,
                0.009999999776482582,
                0.026249999180436134
            ],
            "min" : [
                -0.026249999180436134,
                -0.009999999776482582,
                -0.026249999180436134
            ],
            "type" : "VEC3"
        },
        {
            "bufferView" : 23,
            "componentType" : 5126,
            "count" : 24,
            "type" : "VEC3"
        },
        {
            "bufferView" : 24,
            "componentType" : 5126,
            "count" : 24,
            "type" : "VEC2"
        },
        {
            "bufferView" : 25,
            "componentType" : 5126,
            "count" : 10183,
            "max" : [
                0.02645004354417324,
                0.003455252619460225,
                0.0264500230550766
            ],
            "min" : [
                -0.010102501139044762,
                -0.0034553587902337313,
                -0.010102507658302784
            ],
            "type" : "VEC3"
        },
        {
            "bufferView" : 26,
            "componentType" : 5126,
            "count" : 10183,
            "type" : "VEC3"
        },
        {
            "bufferView" : 27,
            "componentType" : 5126,
            "count" : 10183,
            "type" : "VEC2"
        },
        {
            "bufferView" : 28,
            "componentType" : 5123,
            "count" : 15576,
            "type" : "SCALAR"
        },
        {
            "bufferView" : 29,
            "componentType" : 5126,
            "count" : 38,
            "max" : [
                20.5
            ],
            "min" : [
                11.25
            ],
            "type" : "SCALAR"
        },
        {
            "bufferView" : 30,
            "componentType" : 5126,
            "count" : 38,
            "type" : "VEC3"
        },
        {
            "bufferView" : 31,
            "componentType" : 5126,
            "count" : 47,
            "max" : [
                18
            ],
            "min" : [
                6.5
            ],
            "type" : "SCALAR"
        },
        {
            "bufferView" : 32,
            "componentType" : 5126,
            "count" : 47,
            "type" : "VEC3"
        },
        {
            "bufferView" : 33,
            "componentType" : 5126,
            "count" : 33,
            "max" : [
                23.75
            ],
            "min" : [
                15.75
            ],
            "type" : "SCALAR"
        },
        {
            "bufferView" : 34,
            "componentType" : 5126,
            "count" : 33,
            "type" : "VEC3"
        },
        {
            "bufferView" : 35,
            "componentType" : 5126,
            "count" : 36,
            "max" : [
                22.25
            ],
            "min" : [
                13.5
            ],
            "type" : "SCALAR"
        },
        {
            "bufferView" : 36,
            "componentType" : 5126,
            "count" : 36,
            "type" : "VEC3"
        }
    ],
    "bufferViews" : [
        {
            "buffer" : 0,
            "byteLength" : 288,
            "byteOffset" : 0
        },
        {
            "buffer" : 0,
            "byteLength" : 288,
            "byteOffset" : 288
        },
        {
            "buffer" : 0,
            "byteLength" : 192,
            "byteOffset" : 576
        },
        {
            "buffer" : 0,
            "byteLength" : 72,
            "byteOffset" : 768
        },
        {
            "buffer" : 0,
            "byteLength" : 89556,
            "byteOffset" : 840
        },
        {
            "buffer" : 0,
            "byteLength" : 89556,
            "byteOffset" : 90396
        },
        {
            "buffer" : 0,
            "byteLength" : 59704,
            "byteOffset" : 179952
        },
        {
            "buffer" : 0,
            "byteLength" : 22464,
            "byteOffset" : 239656
        },
        {
            "buffer" : 0,
            "byteLength" : 288,
            "byteOffset" : 262120
        },
        {
            "buffer" : 0,
            "byteLength" : 288,
            "byteOffset" : 262408
        },
        {
            "buffer" : 0,
            "byteLength" : 192,
            "byteOffset" : 262696
        },
        {
            "buffer" : 0,
            "byteLength" : 103584,
            "byteOffset" : 262888
        },
        {
            "buffer" : 0,
            "byteLength" : 103584,
            "byteOffset" : 366472
        },
        {
            "buffer" : 0,
            "byteLength" : 69056,
            "byteOffset" : 470056
        },
        {
            "buffer" : 0,
            "byteLength" : 26544,
            "byteOffset" : 539112
        },
        {
            "buffer" : 0,
            "byteLength" : 288,
            "byteOffset" : 565656
        },
        {
            "buffer" : 0,
            "byteLength" : 288,
            "byteOffset" : 565944
        },
        {
            "buffer" : 0,
            "byteLength" : 192,
            "byteOffset" : 566232
        },
        {
            "buffer" : 0,
            "byteLength" : 108228,
            "byteOffset" : 566424
        },
        {
            "buffer" : 0,
            "byteLength" : 108228,
            "byteOffset" : 674652
        },
        {
            "buffer" : 0,
            "byteLength" : 72152,
            "byteOffset" : 782880
        },
        {
            "buffer" : 0,
            "byteLength" : 27072,
            "byteOffset" : 855032
        },
        {
            "buffer" : 0,
            "byteLength" : 288,
            "byteOffset" : 882104
        },
        {
            "buffer" : 0,
            "byteLength" : 288,
            "byteOffset" : 882392
        },
        {
            "buffer" : 0,
            "byteLength" : 192,
            "byteOffset" : 882680
        },
        {
            "buffer" : 0,
            "byteLength" : 122196,
            "byteOffset" : 882872
        },
        {
            "buffer" : 0,
            "byteLength" : 122196,
            "byteOffset" : 1005068
        },
        {
            "buffer" : 0,
            "byteLength" : 81464,
            "byteOffset" : 1127264
        },
        {
            "buffer" : 0,
            "byteLength" : 31152,
            "byteOffset" : 1208728
        },
        {
            "buffer" : 0,
            "byteLength" : 152,
            "byteOffset" : 1239880
        },
        {
            "buffer" : 0,
            "byteLength" : 456,
            "byteOffset" : 1240032
        },
        {
            "buffer" : 0,
            "byteLength" : 188,
            "byteOffset" : 1240488
        },
        {
            "buffer" : 0,
            "byteLength" : 564,
            "byteOffset" : 1240676
        },
        {
            "buffer" : 0,
            "byteLength" : 132,
            "byteOffset" : 1241240
        },
        {
            "buffer" : 0,
            "byteLength" : 396,
            "byteOffset" : 1241372
        },
        {
            "buffer" : 0,
            "byteLength" : 144,
            "byteOffset" : 1241768
        },
        {
            "buffer" : 0,
            "byteLength" : 432,
            "byteOffset" : 1241912
        }
    ],
    "buffers" : [
        {
            "byteLength" : 1242344,
            "uri" : "data:application/octet-stream;base64,"
        }
    ]
}
